<?xml version="1.0" standalone="no"?>
<!DOCTYPE svg PUBLIC "-//W3C//DTD SVG 20010904//EN"
 "http://www.w3.org/TR/2001/REC-SVG-20010904/DTD/svg10.dtd">
<svg version="1.0" xmlns="http://www.w3.org/2000/svg"
 width="512.000000pt" height="512.000000pt" viewBox="0 0 512.000000 512.000000"
 preserveAspectRatio="xMidYMid meet">
<metadata>
Created by potrace 1.14, written by Peter Selinger 2001-2017
</metadata>
<g transform="translate(0.000000,512.000000) scale(0.100000,-0.100000)"
fill="#000000" stroke="none">
<path d="M2452 4180 c-18 -9 -29 -19 -25 -24 4 -4 1 -7 -7 -5 -23 5 -70 -10
-70 -22 0 -7 6 -6 18 2 15 13 16 12 3 -3 -10 -14 -17 -15 -33 -7 -16 8 -19 8
-13 -1 10 -17 -16 -32 -32 -18 -10 8 -12 7 -8 -5 4 -8 1 -18 -6 -23 -8 -4 -10
-3 -5 4 4 7 2 12 -3 12 -6 0 -11 -7 -11 -15 0 -8 -5 -15 -11 -15 -5 0 -7 5 -4
11 4 6 -2 5 -13 -2 -12 -7 -18 -19 -14 -27 3 -10 1 -13 -6 -8 -7 4 -12 2 -12
-3 0 -6 -10 -11 -21 -11 -16 0 -20 -5 -16 -20 4 -17 2 -18 -13 -10 -16 8 -18
7 -15 -10 3 -18 1 -19 -18 -8 -19 10 -21 9 -9 -4 10 -13 10 -18 1 -24 -8 -4
-9 -3 -5 4 10 17 -3 15 -20 -3 -12 -12 -12 -15 -2 -15 8 0 6 -4 -5 -11 -9 -5
-23 -7 -30 -3 -8 5 -7 2 2 -9 12 -15 12 -17 -4 -11 -13 5 -16 4 -11 -4 4 -7 1
-12 -8 -12 -9 0 -16 -5 -16 -11 0 -5 6 -7 13 -3 8 5 8 2 -2 -9 -7 -9 -19 -17
-25 -17 -6 0 -4 5 4 10 8 5 10 10 4 10 -12 0 -34 -21 -34 -33 0 -4 6 -5 13 -2
6 4 3 0 -7 -9 -10 -8 -23 -13 -27 -10 -5 3 -9 -2 -9 -10 0 -8 -12 -24 -26 -35
-15 -12 -23 -21 -19 -21 5 0 18 8 29 17 16 13 15 11 -3 -9 -13 -15 -28 -25
-32 -22 -4 2 -6 -5 -4 -17 3 -17 2 -19 -10 -9 -11 9 -12 7 -8 -11 5 -18 3 -21
-12 -15 -16 6 -16 4 -4 -11 9 -11 10 -14 2 -9 -8 4 -13 2 -13 -4 0 -6 -5 -8
-12 -4 -8 5 -9 2 -4 -11 6 -16 4 -16 -11 -4 -12 10 -15 10 -9 1 4 -7 2 -21 -5
-30 -11 -14 -11 -15 1 -4 8 6 19 12 24 12 6 0 0 -7 -12 -16 -13 -9 -19 -20
-15 -27 4 -7 -1 -6 -10 2 -15 12 -17 12 -11 -4 5 -13 4 -16 -5 -10 -10 6 -11
3 -2 -13 10 -18 8 -20 -9 -17 -11 2 -19 1 -19 -3 3 -20 -2 -32 -11 -27 -6 3
-7 -1 -4 -9 4 -10 1 -16 -7 -16 -11 0 -11 -3 1 -10 13 -8 13 -10 -1 -10 -9 0
-23 -8 -30 -17 -8 -10 -9 -14 -2 -10 6 4 14 3 18 -3 3 -5 -1 -10 -10 -10 -9 0
-13 -5 -10 -10 3 -6 0 -13 -8 -16 -8 -3 -13 -16 -11 -30 2 -21 0 -23 -12 -13
-12 10 -13 9 -8 -5 3 -9 1 -16 -6 -16 -6 0 -9 -4 -6 -9 4 -5 -2 -8 -11 -6 -10
2 -28 4 -41 4 -13 1 -20 5 -17 11 3 6 1 11 -4 11 -36 4 -71 20 -71 31 0 5 -7
7 -16 4 -9 -4 -13 -2 -8 5 4 7 -1 9 -17 5 -13 -3 -18 -3 -11 0 20 10 13 22
-10 16 -16 -4 -19 -2 -13 9 7 11 5 11 -10 -1 -11 -9 -16 -10 -11 -2 4 6 4 12
-1 13 -30 2 -58 11 -70 20 -8 8 -13 8 -13 1 0 -6 6 -13 13 -15 7 -4 8 -6 1 -6
-6 -1 -17 6 -24 14 -10 12 -16 13 -27 4 -11 -10 -12 -8 -6 7 6 16 4 17 -9 6
-13 -10 -17 -10 -21 3 -5 11 -12 13 -31 5 -21 -8 -24 -7 -19 8 6 15 5 15 -10
3 -14 -11 -20 -11 -32 -1 -8 7 -24 10 -34 7 -11 -3 -29 2 -40 9 -15 11 -22 11
-27 3 -5 -8 -3 -9 6 -4 9 5 11 4 6 -4 -6 -9 -11 -9 -23 0 -19 16 -53 19 -53 5
0 -8 -2 -8 -8 0 -4 6 -23 11 -43 11 -19 0 -41 3 -47 7 -7 4 -12 3 -12 -1 0 -5
-9 -9 -19 -9 -11 0 -17 4 -15 8 3 4 0 8 -5 8 -6 0 -11 -6 -11 -12 0 -9 -4 -8
-10 2 -9 13 -10 13 -10 0 0 -13 -1 -13 -10 0 -8 12 -11 13 -19 1 -5 -8 -11 -9
-15 -3 -3 5 -22 6 -45 2 -27 -5 -42 -3 -45 4 -3 7 -5 6 -5 -2 -1 -10 -6 -10
-21 -2 -16 9 -20 8 -21 -7 0 -16 -1 -16 -9 2 -5 11 -9 14 -9 7 -1 -7 -5 -10
-11 -7 -5 3 -10 0 -10 -7 0 -10 -2 -10 -9 1 -6 9 -10 10 -16 2 -5 -9 -10 -9
-21 0 -11 9 -14 8 -15 -7 0 -15 -2 -16 -7 -4 -4 8 -14 14 -22 14 -8 -1 -21 -2
-28 -3 -7 0 -10 -5 -7 -11 4 -7 -3 -7 -20 0 -17 7 -24 7 -20 0 3 -6 -1 -10
-10 -10 -10 0 -14 5 -10 13 4 6 1 5 -7 -3 -17 -20 -53 -26 -43 -8 3 7 0 5 -8
-5 -8 -9 -21 -15 -30 -11 -8 3 -18 0 -22 -5 -3 -6 -11 -9 -16 -6 -5 4 -9 2 -9
-3 0 -5 -11 -8 -25 -7 -14 2 -28 -2 -32 -7 -3 -7 -1 -8 5 -4 7 4 12 2 12 -5 0
-7 -8 -9 -21 -6 -12 3 -18 3 -15 0 8 -8 -36 -39 -49 -35 -5 2 -7 0 -3 -4 4 -4
0 -13 -10 -21 -10 -9 -11 -11 -2 -7 12 6 13 5 3 -7 -10 -12 -10 -18 0 -29 9
-10 9 -11 0 -6 -9 5 -13 -1 -13 -18 0 -14 -4 -26 -10 -26 -5 0 -10 -5 -10 -11
0 -5 4 -7 10 -4 14 9 12 -8 -2 -24 -11 -11 -10 -12 1 -6 10 6 12 4 5 -6 -4 -8
-9 -27 -9 -44 0 -16 -4 -35 -8 -42 -4 -6 -2 -15 4 -19 8 -5 9 -3 4 6 -5 9 -4
11 4 6 7 -5 9 -13 3 -19 -14 -21 -33 -69 -23 -63 5 3 11 -3 14 -14 3 -11 0
-20 -5 -20 -6 0 -4 -8 3 -17 8 -9 9 -14 2 -10 -7 5 -9 0 -6 -13 3 -11 0 -27
-7 -35 -11 -13 -10 -14 3 -9 13 4 15 0 11 -26 -3 -17 0 -38 7 -46 10 -12 9
-13 -7 -8 -10 4 -16 4 -12 -1 4 -4 3 -13 -2 -20 -7 -8 -5 -12 5 -12 8 0 11 5
8 10 -3 6 -1 7 5 3 6 -4 9 -13 6 -21 -4 -8 -11 -12 -16 -9 -6 4 -3 -5 7 -19
12 -18 13 -27 4 -32 -8 -6 -8 -9 0 -15 9 -5 9 -14 1 -34 -7 -20 -7 -25 2 -20
8 5 9 2 5 -9 -4 -12 -1 -17 11 -18 14 0 14 -2 -3 -9 -11 -5 -14 -9 -7 -9 9 -1
10 -6 2 -20 -7 -14 -7 -22 0 -26 6 -4 8 -11 5 -16 -4 -5 -1 -9 6 -9 8 0 8 -4
-1 -15 -9 -11 -9 -15 -1 -15 7 0 9 -4 6 -10 -3 -5 -2 -10 3 -10 5 0 8 -14 6
-31 -2 -16 0 -28 5 -25 4 3 7 -8 5 -24 -2 -16 2 -32 8 -36 7 -5 8 -3 3 6 -6 9
-4 11 5 5 10 -6 10 -10 -3 -20 -14 -10 -14 -12 1 -23 11 -8 11 -10 2 -6 -10 5
-8 0 4 -15 20 -22 20 -22 0 -16 -19 7 -19 6 0 -9 11 -9 16 -16 12 -16 -5 0 -2
-8 5 -17 9 -11 10 -14 2 -9 -14 8 -7 -19 10 -41 5 -7 6 -13 1 -13 -4 0 1 -7
12 -16 19 -15 19 -16 -1 -9 -18 6 -17 4 3 -18 17 -18 20 -26 10 -29 -10 -4 -9
-9 4 -24 9 -10 18 -23 20 -29 2 -5 6 -9 10 -8 4 2 5 -4 2 -12 -4 -8 2 -23 13
-33 10 -9 12 -12 4 -7 -12 8 -12 7 -3 -11 6 -12 8 -25 4 -30 -4 -5 0 -3 9 4
13 9 16 9 16 -3 0 -8 -5 -15 -11 -15 -6 0 -4 -4 4 -9 8 -6 17 -8 20 -6 4 2 7
-2 7 -10 0 -8 -3 -12 -7 -10 -4 2 -7 -2 -7 -10 0 -8 4 -12 9 -9 4 3 11 -2 14
-10 3 -9 11 -13 16 -10 6 4 7 -2 3 -16 -4 -14 -3 -20 3 -16 5 3 13 -6 16 -19
4 -17 11 -23 19 -18 7 4 5 -2 -3 -12 -9 -11 -10 -16 -2 -11 7 4 12 1 12 -8 0
-9 4 -16 8 -16 5 0 15 -11 22 -25 7 -13 17 -22 22 -19 4 3 8 -5 8 -16 0 -15 5
-20 14 -17 10 4 12 0 9 -14 -4 -15 -2 -18 12 -12 13 4 16 3 11 -5 -7 -11 6
-17 27 -13 5 1 6 -3 2 -8 -3 -6 -13 -8 -23 -5 -15 5 -15 4 1 -6 9 -6 15 -15
12 -21 -3 -5 0 -6 8 -3 8 3 18 0 23 -7 5 -8 3 -10 -6 -4 -8 5 -11 4 -6 -3 4
-6 13 -9 21 -5 11 3 15 -2 15 -18 0 -19 2 -21 10 -9 8 13 10 12 10 -2 0 -16
11 -23 33 -19 5 1 6 -3 2 -9 -3 -6 -11 -8 -16 -5 -5 4 -9 4 -9 1 0 -3 10 -10
21 -17 17 -9 20 -8 14 2 -5 8 -4 10 3 5 7 -4 12 -17 12 -29 0 -18 2 -19 10 -7
8 13 11 13 22 1 10 -10 10 -12 1 -7 -7 4 -13 2 -13 -3 0 -6 8 -11 18 -11 9 -1
31 -12 47 -26 17 -15 25 -24 19 -21 -6 4 -11 0 -11 -8 0 -11 5 -12 20 -3 12 6
17 6 13 0 -3 -5 1 -13 10 -16 8 -3 12 -10 9 -16 -3 -6 1 -7 9 -4 9 3 16 1 16
-5 0 -6 5 -11 11 -11 5 0 7 6 3 13 -4 6 2 4 14 -7 12 -10 19 -23 16 -27 -3 -5
1 -6 9 -3 8 3 18 0 23 -7 5 -8 3 -10 -6 -4 -9 5 -11 4 -6 -4 4 -6 15 -9 25 -6
9 3 26 -2 37 -11 18 -14 18 -15 -6 -4 -24 11 -24 10 -6 -4 11 -9 26 -16 33
-16 7 0 13 -4 13 -9 0 -7 19 -15 50 -21 3 -1 14 -9 24 -18 11 -9 16 -11 12 -4
-6 10 -2 10 18 1 14 -7 23 -16 19 -22 -4 -6 2 -8 15 -5 12 4 25 1 29 -4 4 -7
1 -8 -7 -3 -9 6 -11 4 -5 -4 5 -9 11 -9 17 -3 11 11 41 5 34 -7 -3 -4 5 -13
17 -21 20 -12 21 -12 8 4 -12 14 -12 16 3 10 9 -3 16 -10 16 -16 0 -5 5 -6 10
-3 5 3 10 1 10 -6 0 -8 5 -8 18 2 9 7 14 9 10 5 -8 -9 19 -35 37 -36 6 0 3 5
-5 10 -8 5 -10 10 -4 10 6 0 19 -9 28 -19 18 -19 31 -21 53 -8 6 4 14 3 18 -3
4 -6 11 -7 17 -4 7 4 8 2 4 -5 -6 -9 -12 -9 -24 1 -15 11 -15 11 -5 -2 14 -19
78 -27 67 -9 -4 8 -3 9 5 5 6 -4 9 -11 6 -15 -2 -5 8 -13 23 -20 24 -10 25
-10 9 3 -17 13 -16 14 6 12 17 -1 23 -6 19 -15 -4 -10 -1 -12 7 -6 8 4 17 2
22 -6 7 -12 9 -11 9 1 1 11 4 10 15 -4 8 -11 15 -16 15 -10 0 5 11 9 24 9 20
0 22 -3 13 -14 -10 -12 -9 -13 6 -8 10 4 28 2 40 -5 21 -11 21 -10 7 7 -14 18
-12 17 21 -2 24 -14 41 -18 51 -12 11 6 18 4 22 -6 6 -17 26 -20 26 -4 0 5 -5
7 -12 3 -7 -5 -8 -3 -4 5 6 9 12 8 26 -4 9 -8 24 -13 34 -9 10 4 16 1 16 -7 0
-11 3 -11 10 1 6 9 10 11 10 3 0 -7 6 -10 14 -7 8 3 23 1 32 -4 11 -6 27 -7
41 -1 14 5 25 4 29 -3 5 -7 3 -8 -6 -3 -9 5 -11 4 -6 -4 6 -9 11 -9 21 -1 8 7
15 7 19 1 7 -11 25 -9 45 3 10 6 12 5 7 -2 -9 -15 -1 -15 27 0 19 10 20 9 10
-4 -11 -13 -6 -14 37 -12 35 1 48 -1 44 -9 -5 -9 -3 -9 6 0 7 6 19 9 28 6 10
-4 13 -2 8 5 -10 17 0 15 19 -4 12 -13 19 -14 30 -4 12 10 15 10 15 0 0 -10 3
-10 14 -1 11 9 16 9 21 1 5 -8 11 -8 17 -2 7 7 17 7 30 -1 15 -10 21 -9 28 3
6 9 10 10 10 3 0 -8 38 -11 134 -10 74 1 133 0 131 -3 -2 -3 10 -5 25 -5 16
-1 26 3 24 7 -3 4 0 8 5 8 6 0 11 -6 11 -12 0 -9 3 -8 10 2 5 8 12 11 16 7 4
-4 14 -1 22 6 10 7 13 8 9 1 -4 -7 2 -12 18 -12 14 0 23 4 20 8 -5 9 27 6 43
-4 6 -4 12 -3 12 2 0 5 7 9 15 9 8 0 15 -3 15 -7 0 -4 7 -7 15 -7 8 0 15 4 15
8 0 4 12 6 26 3 14 -3 23 -1 20 5 -4 5 8 6 29 1 28 -6 35 -5 35 7 0 8 5 11 10
8 6 -4 8 -11 5 -16 -4 -5 -2 -9 3 -9 6 0 13 7 16 15 5 13 10 14 27 4 12 -6 19
-7 15 -1 -4 7 9 9 34 8 22 -2 40 1 40 6 0 4 5 8 11 8 5 0 8 -4 5 -8 -2 -4 4
-8 14 -8 10 0 16 5 13 11 -2 7 3 12 12 12 8 0 15 -5 15 -11 0 -6 4 -6 11 1 6
6 18 9 27 6 11 -5 13 -3 7 8 -7 11 -5 11 10 -1 17 -14 18 -13 12 2 -5 15 -4
16 14 5 16 -10 21 -9 29 3 9 13 10 13 10 0 1 -12 3 -11 11 3 7 13 15 15 27 8
12 -7 23 -5 36 7 18 16 19 16 12 -3 -6 -17 -4 -16 19 5 22 20 25 21 19 5 -7
-17 -4 -16 26 5 18 13 30 17 25 9 -8 -12 -7 -12 9 0 15 13 19 13 27 0 5 -8 9
-9 9 -4 0 6 9 16 21 23 15 10 19 10 14 1 -5 -7 -3 -10 6 -7 8 3 13 10 12 16
-1 5 7 8 17 5 11 -3 20 0 20 6 0 6 5 11 11 11 5 0 7 -6 3 -12 -6 -9 -3 -9 9 0
9 8 21 11 27 7 6 -4 9 -1 8 7 -2 8 4 12 15 10 9 -2 17 3 17 10 0 9 3 9 10 -2
6 -9 10 -11 10 -3 0 7 7 10 17 6 12 -5 15 -2 11 9 -4 8 -1 15 8 15 7 0 10 -5
7 -10 -4 -6 10 2 30 17 20 16 37 23 37 17 0 -6 -4 -11 -10 -11 -5 0 -10 -5
-10 -12 0 -6 11 -1 24 11 15 14 30 20 37 15 9 -5 10 -2 6 9 -3 10 -2 17 3 17
6 0 10 -6 10 -12 0 -9 4 -8 10 2 5 8 10 11 10 6 0 -5 12 3 26 17 17 17 33 24
49 21 19 -3 23 -1 19 11 -5 11 -2 13 12 8 13 -5 15 -3 9 8 -8 12 -6 12 8 0 14
-11 18 -11 23 3 3 9 12 16 20 16 8 0 14 5 14 11 0 6 7 8 16 5 10 -4 13 -2 8 6
-5 8 -2 9 11 4 16 -6 16 -4 4 11 -7 10 -9 15 -4 10 4 -4 18 1 29 10 20 18 20
17 6 -2 -14 -18 -13 -19 1 -8 9 7 19 10 23 6 4 -4 4 1 0 12 -4 11 -3 17 1 13
5 -5 15 1 23 13 12 17 16 18 30 7 12 -10 14 -10 8 0 -5 8 -1 12 11 12 15 0 16
2 3 10 -13 8 -12 10 3 10 10 0 16 4 12 9 -3 5 -1 12 5 16 5 3 10 1 10 -4 0 -6
5 -11 12 -11 6 0 8 3 5 7 -4 3 1 12 11 20 10 9 11 12 2 7 -8 -4 -11 -3 -7 1 7
8 28 15 54 17 7 1 10 5 8 9 -3 3 2 12 10 19 7 6 13 17 11 23 -1 7 -1 9 1 5 9
-15 25 -8 19 8 -5 14 -4 15 9 4 13 -11 14 -10 10 3 -4 8 -1 18 4 22 6 3 8 11
5 17 -4 6 1 6 14 -1 16 -9 19 -7 18 7 0 9 4 16 11 15 7 -2 10 6 8 18 -4 17 -2
19 11 8 12 -10 13 -9 9 3 -4 10 1 17 14 21 14 3 19 11 15 20 -3 10 0 15 12 14
13 -2 18 6 19 28 0 23 5 29 17 27 12 -2 20 6 24 23 3 13 10 22 15 19 5 -3 6 1
3 9 -3 8 0 18 5 22 6 3 8 11 5 17 -4 7 2 8 17 3 22 -7 22 -7 6 9 -21 22 -22
27 0 19 12 -5 15 -2 10 10 -3 9 -2 19 3 22 5 3 6 13 3 23 -6 16 -6 16 11 0 21
-22 33 -24 16 -3 -9 10 -9 15 -1 15 6 0 11 5 11 11 0 5 -5 7 -12 3 -7 -4 -8
-3 -4 4 4 7 15 12 24 13 14 0 13 2 -3 9 -16 7 -17 9 -3 9 9 1 20 6 24 13 4 7
3 8 -4 4 -8 -5 -10 -2 -6 8 3 9 13 16 21 16 8 0 11 5 8 10 -4 6 -12 8 -18 4
-7 -3 -4 1 7 10 10 9 15 20 10 27 -5 9 -2 10 10 6 14 -5 15 -3 6 13 -13 24
-13 30 1 30 5 0 7 -5 3 -12 -4 -7 -3 -8 4 -4 6 4 8 14 5 23 -4 10 -2 14 4 10
5 -3 10 0 10 8 0 8 -5 12 -11 9 -6 -3 0 4 13 15 19 17 21 24 11 36 -11 13 -7
19 11 17 3 -1 5 10 3 23 -1 14 3 25 9 25 7 0 5 5 -3 10 -13 9 -13 10 0 10 13
0 13 1 0 10 -13 8 -12 10 3 10 15 0 16 3 6 21 -6 12 -7 19 -1 15 5 -3 13 1 16
10 4 10 2 13 -7 8 -9 -6 -9 -5 0 7 7 8 10 25 6 37 -3 13 -1 22 6 22 7 0 10 4
6 9 -3 5 -1 13 5 16 8 5 7 11 -1 21 -8 10 -9 18 0 27 6 8 8 17 4 20 -3 4 -1 7
5 7 7 0 12 5 12 11 0 5 -4 8 -9 5 -5 -4 -7 3 -4 14 3 11 10 17 17 13 7 -4 7
-1 -1 8 -10 12 -10 18 -1 27 9 9 9 12 -1 12 -7 0 -9 5 -6 10 4 6 12 7 18 3 7
-4 4 6 -7 21 -10 16 -13 25 -7 22 6 -4 11 0 12 11 0 10 2 26 4 35 2 10 -4 22
-13 28 -10 5 -12 10 -6 10 15 0 25 38 12 46 -5 3 -2 15 9 27 17 19 17 20 1 14
-23 -8 -23 2 0 20 15 13 15 14 0 9 -12 -3 -15 -1 -11 9 3 8 10 12 17 8 6 -4 5
1 -3 10 -11 14 -11 17 0 17 11 0 11 3 -1 11 -12 8 -12 12 -2 16 10 4 9 8 -4
17 -13 10 -14 15 -4 21 9 6 11 4 5 -5 -5 -8 -4 -11 2 -7 5 3 9 16 7 29 -1 13
-3 27 -3 31 -1 5 -5 6 -9 3 -11 -6 -9 51 2 61 5 5 6 2 1 -6 -5 -9 -4 -12 3 -7
13 8 -6 46 -22 46 -6 0 -1 7 10 16 10 8 14 13 7 10 -7 -4 -9 1 -5 16 3 14 2
19 -6 14 -9 -5 -9 0 -2 18 7 18 6 26 -1 26 -8 0 -7 5 1 15 7 9 8 15 2 15 -6 0
-9 11 -7 25 1 14 -2 28 -8 32 -6 4 -7 1 -2 -7 6 -9 4 -11 -4 -6 -7 5 -10 11
-7 14 3 3 0 12 -7 20 -9 13 -9 14 1 8 6 -4 12 -2 12 3 0 6 -7 11 -15 11 -8 0
-15 6 -15 14 0 17 -74 78 -84 69 -10 -11 -37 -12 -30 -2 3 5 11 6 17 3 7 -4 8
-3 4 1 -4 5 -20 11 -35 13 -15 2 -30 8 -33 14 -4 7 -9 6 -14 -1 -5 -9 -10 -9
-21 0 -8 6 -35 12 -59 12 -25 0 -45 3 -45 7 0 4 -9 10 -20 13 -11 3 -18 1 -14
-4 3 -5 -2 -9 -11 -9 -9 0 -13 5 -10 10 10 16 -18 7 -33 -10 -8 -8 -11 -10 -8
-3 4 6 2 14 -4 18 -5 3 -10 2 -10 -4 0 -6 -7 -8 -15 -5 -8 4 -12 10 -9 15 3 5
-2 6 -10 3 -9 -3 -14 -9 -11 -13 2 -4 -2 -8 -10 -8 -8 0 -12 3 -10 7 2 3 -31
4 -73 2 -42 -2 -80 -8 -83 -14 -4 -6 -8 -5 -11 3 -4 11 -10 11 -31 2 -15 -7
-27 -9 -27 -4 0 5 -7 12 -16 15 -13 5 -14 3 -6 -7 9 -10 6 -13 -11 -12 -12 0
-28 4 -36 9 -11 7 -13 5 -8 -8 6 -14 3 -15 -13 -6 -13 7 -20 7 -20 1 0 -7 -9
-7 -26 -1 -23 9 -25 8 -20 -6 5 -12 3 -14 -6 -8 -7 5 -20 9 -28 8 -8 -1 -21
-2 -28 -3 -7 0 -10 -7 -7 -13 4 -7 -1 -4 -9 6 -15 18 -16 18 -16 2 0 -9 -5
-14 -10 -11 -6 4 -17 2 -25 -5 -10 -8 -15 -8 -20 0 -5 8 -12 5 -22 -7 -8 -10
-12 -12 -8 -5 8 15 -17 16 -33 0 -7 -7 -12 -8 -12 -4 0 5 -8 2 -17 -5 -9 -8
-14 -9 -10 -3 3 6 0 11 -8 11 -8 0 -14 -3 -13 -6 2 -19 -4 -24 -12 -11 -6 9
-10 11 -10 3 0 -7 -7 -10 -15 -7 -8 4 -15 1 -15 -6 0 -7 -7 -10 -15 -6 -8 3
-15 1 -15 -4 0 -6 -5 -10 -11 -10 -5 0 -7 5 -3 11 3 6 -8 4 -24 -5 -17 -9 -36
-16 -43 -16 -6 0 -18 -8 -26 -17 -8 -10 -12 -12 -8 -6 7 15 -7 10 -74 -24 -25
-12 -45 -25 -43 -28 3 -8 -9 -7 -16 1 -4 4 -1 4 7 -1 10 -6 12 -4 7 4 -6 9
-11 9 -22 0 -11 -9 -14 -8 -14 5 0 10 -4 14 -10 11 -9 -6 -14 8 -11 28 0 4 -4
7 -9 7 -6 0 -10 7 -10 15 0 8 -4 15 -10 15 -5 0 -10 5 -10 11 0 5 6 7 13 4 6
-4 -3 7 -21 24 -18 17 -27 31 -20 31 7 0 5 5 -5 11 -9 6 -15 14 -12 18 2 5 -3
15 -13 22 -16 13 -16 13 -2 -6 14 -19 14 -19 -2 -6 -10 7 -18 25 -18 40 0 20
-2 23 -10 11 -8 -13 -10 -12 -10 3 0 9 -4 17 -9 17 -5 0 -12 7 -15 16 -6 15
-4 15 11 3 15 -12 15 -11 -1 8 -10 13 -24 20 -30 16 -6 -4 -4 2 4 12 14 17 14
18 -7 7 -18 -10 -21 -9 -19 5 2 10 -7 23 -18 29 -12 6 -20 16 -19 22 2 7 -2
12 -7 12 -6 0 -10 7 -10 16 0 9 -5 12 -12 8 -8 -5 -9 -2 -4 11 6 16 4 16 -11
4 -11 -9 -14 -10 -9 -2 4 8 -4 23 -21 39 -15 15 -19 20 -9 13 18 -13 18 -13 6
8 -10 15 -18 19 -26 12 -17 -14 -37 13 -21 31 9 10 9 11 0 6 -7 -4 -13 -2 -13
3 0 6 -6 11 -14 11 -8 0 -23 11 -34 25 -11 13 -22 21 -26 18 -3 -3 -6 1 -6 11
0 11 -4 15 -12 10 -8 -5 -8 -1 2 12 8 10 11 16 6 12 -12 -10 -48 11 -41 23 4
5 1 9 -4 9 -6 0 -11 -8 -12 -17 -1 -12 -4 -9 -8 7 -4 14 -15 26 -27 28 -11 2
-24 13 -29 25 -6 14 -17 21 -29 19 -13 -2 -16 1 -10 10 6 10 5 10 -9 0 -14
-12 -16 -11 -12 6 2 14 -1 19 -13 15 -9 -2 -26 3 -37 12 l-20 15 20 -7 c25 -8
18 0 -14 17 -17 9 -21 9 -16 0 5 -8 0 -7 -14 2 -12 7 -21 20 -22 28 0 10 -3 8
-9 -5 -8 -18 -9 -18 -9 -2 -1 10 -5 16 -10 12 -12 -7 -97 40 -94 52 1 5 -7 9
-17 9 -10 0 -17 -3 -14 -7 5 -9 -17 -6 -33 4 -8 5 -13 3 -13 -4 0 -7 -4 -8
-12 -2 -9 6 -24 4 -46 -7z m38 6 c0 -2 -8 -10 -17 -17 -16 -13 -17 -12 -4 4
13 16 21 21 21 13z m384 -164 c3 -5 -1 -9 -9 -9 -8 0 -12 4 -9 9 3 4 7 8 9 8
2 0 6 -4 9 -8z m2034 -617 c-3 -3 -9 2 -12 12 -6 14 -5 15 5 6 7 -7 10 -15 7
-18z m-4804 -371 c3 -8 2 -12 -4 -9 -6 3 -10 10 -10 16 0 14 7 11 14 -7z
m4936 -28 c0 -3 -4 -8 -10 -11 -5 -3 -10 -1 -10 4 0 6 5 11 10 11 6 0 10 -2
10 -4z m-105 -826 c-3 -5 -12 -10 -18 -10 -7 0 -6 4 3 10 19 12 23 12 15 0z
m-205 -420 c0 -5 -5 -10 -11 -10 -5 0 -7 5 -4 10 3 6 8 10 11 10 2 0 4 -4 4
-10z m-230 -264 c0 -2 -8 -10 -17 -17 -16 -13 -17 -12 -4 4 13 16 21 21 21 13z
m-3470 -246 c0 -5 -2 -10 -4 -10 -3 0 -8 5 -11 10 -3 6 -1 10 4 10 6 0 11 -4
11 -10z"/>
<path d="M2615 4170 c3 -5 8 -10 11 -10 2 0 4 5 4 10 0 6 -5 10 -11 10 -5 0
-7 -4 -4 -10z"/>
<path d="M2647 4159 c7 -7 15 -10 18 -7 3 3 -2 9 -12 12 -14 6 -15 5 -6 -5z"/>
<path d="M3235 3681 c-3 -5 -2 -12 3 -15 5 -3 9 1 9 9 0 17 -3 19 -12 6z"/>
<path d="M690 1445 c0 -2 10 -10 23 -16 20 -11 21 -11 8 4 -13 16 -31 23 -31
12z"/>
<path d="M4336 1353 c-6 -14 -5 -15 5 -6 7 7 10 15 7 18 -3 3 -9 -2 -12 -12z"/>
<path d="M835 1340 c-3 -5 -1 -10 4 -10 6 0 11 5 11 10 0 6 -2 10 -4 10 -3 0
-8 -4 -11 -10z"/>
<path d="M4069 1203 c-13 -16 -12 -17 4 -4 9 7 17 15 17 17 0 8 -8 3 -21 -13z"/>
</g>
</svg>
